<svg width="88" height="88" viewBox="0 0 88 88" fill="none" xmlns="http://www.w3.org/2000/svg">
<g filter="url(#filter0_d_125_3431)">
<circle cx="44" cy="40" r="24" fill="#148F2B" stroke="white" stroke-width="2"/>
<path fill-rule="evenodd" clip-rule="evenodd" d="M44 26C53.9394 26 62 32.1302 62 39.6891C62 47.2479 53.9394 53.3782 44 53.3782C34.0606 53.3782 26 47.2479 26 39.6891C26 32.1302 34.0606 26 44 26Z" fill="#F7E123"/>
<path fill-rule="evenodd" clip-rule="evenodd" d="M44.0018 26.5774V26.5796H44.0011H43.9996V26.5774C39.1593 26.5775 34.7832 28.0652 31.6217 30.4696C28.5053 32.8396 26.5773 36.1001 26.5771 39.6884H26.5794V39.689V39.6898H26.5771C26.5774 43.2779 28.5053 46.5382 31.6215 48.9082C34.7832 51.3129 39.1596 52.8005 44.0004 52.8006V52.7983H44.0011H44.0025V52.8006C48.8429 52.8003 53.2189 51.3127 56.3804 48.9084C59.4969 46.5383 61.425 43.2778 61.425 39.6895H61.4228V39.689V39.6882H61.425C61.4248 36.1001 59.4969 32.8397 56.3807 30.4697C53.219 28.0652 48.8425 26.5774 44.0018 26.5774Z" fill="#353980"/>
<path fill-rule="evenodd" clip-rule="evenodd" d="M44.0003 30.1394V30.141H43.9998H43.9988V30.1394C40.6249 30.1396 37.5745 31.2231 35.3708 32.9743C33.1985 34.7006 31.8545 37.0755 31.8545 39.689H31.8561V39.6894V39.6899H31.8545C31.8546 42.3033 33.1985 44.678 35.3706 46.4043C37.5745 48.1556 40.6251 49.2393 43.9993 49.2393V49.2377H43.9998H44.0008V49.2393C47.3748 49.2391 50.4251 48.1556 52.6289 46.4044C54.8011 44.6781 56.1451 42.3032 56.1451 39.6897H56.1436V39.6894V39.6888H56.1451C56.145 37.0754 54.8011 34.7007 52.629 32.9745C50.4251 31.2231 47.3745 30.1395 44.0003 30.1394Z" fill="#F7E123"/>
<path fill-rule="evenodd" clip-rule="evenodd" d="M44.2246 30.8655H43.9996H43.999H43.623C42.1539 30.9024 40.7544 31.1554 39.4739 31.5851C39.1799 31.6837 38.8835 31.7958 38.5856 31.9204C38.294 32.0425 38.0129 32.1726 37.7435 32.3097C37.047 32.6641 36.4017 33.0773 35.8189 33.5405L35.8182 33.5396V33.5411C35.5301 33.7699 35.261 34.0073 35.0125 34.252C34.7603 34.5002 34.5256 34.7581 34.3099 35.0242C33.2632 36.3155 32.6351 37.8307 32.5781 39.4473V39.6886V39.689V39.6897V39.9284C32.6027 40.6313 32.7352 41.3158 32.9633 41.9709C33.0474 42.2124 33.1429 42.4469 33.2489 42.6734C33.8064 43.8644 34.6909 44.9416 35.8187 45.8376L35.8285 45.8475C36.1143 46.0739 36.4159 46.289 36.7316 46.491C37.0383 46.6874 37.3741 46.8788 37.7372 47.0639C39.481 47.9531 41.5522 48.4805 43.7823 48.5127H43.9985H43.999H44.0001H44.3597C45.8345 48.4771 47.2392 48.2242 48.5242 47.7931C48.8181 47.6945 49.1146 47.5824 49.4125 47.4577C49.7041 47.3357 49.9851 47.2056 50.2546 47.0684C50.9511 46.714 51.5963 46.3007 52.1791 45.8376L52.1798 45.8386V45.837C52.4679 45.6082 52.737 45.3708 52.9855 45.1261C53.2377 44.8779 53.4724 44.6201 53.6882 44.354C54.7338 43.064 55.3618 41.5505 55.4199 39.9358V39.6895V39.689V39.6885V39.4387C55.3944 38.7395 55.2617 38.059 55.0348 37.4072C54.9507 37.1658 54.8552 36.9313 54.7491 36.7048C54.1917 35.5137 53.3072 34.4365 52.1794 33.5405L52.1681 33.5291L52.1673 33.5284C51.8821 33.3028 51.5811 33.0885 51.2665 32.8871C50.9597 32.6907 50.6239 32.4993 50.2608 32.3142C48.5192 31.4262 46.4515 30.8988 44.2246 30.8655Z" fill="#BBBDBF"/>
<path fill-rule="evenodd" clip-rule="evenodd" d="M44.1831 31.3325L44.1832 32.8389C44.5159 32.8342 44.8479 32.8181 45.1765 32.7906C44.8764 32.227 44.5429 31.7343 44.1831 31.3325ZM44.1832 33.1994L44.1834 36.1421C44.9175 36.1411 45.6462 36.1178 46.3607 36.0729C46.1119 34.9942 45.7687 33.9947 45.3523 33.1361C44.9663 33.1725 44.575 33.1938 44.1832 33.1994ZM44.1834 36.5035L44.1837 39.5334H46.8043C46.8002 39.3983 46.7947 39.2635 46.7875 39.1288C46.7386 38.2043 46.619 37.294 46.4389 36.4291C45.6989 36.477 44.9439 36.5021 44.1834 36.5035ZM44.1837 39.8957L44.1839 43.0469C44.9734 43.0484 45.7571 43.0753 46.5241 43.1269C46.732 42.0752 46.8223 40.9818 46.8118 39.8957H44.1837ZM44.1839 43.4081L44.1841 46.3521C44.5815 46.3581 44.9784 46.3798 45.3699 46.4174C45.86 45.5191 46.214 44.5248 46.4487 43.4834C45.7061 43.4347 44.9479 43.4093 44.1839 43.4081ZM44.1841 46.7129L44.1842 48.0926C44.5568 47.6847 44.8857 47.2383 45.173 46.7613C44.8459 46.7338 44.5153 46.7178 44.1841 46.7129ZM43.8243 48.0924L43.8241 46.7121C43.492 46.7155 43.1605 46.73 42.8323 46.7559C43.1204 47.2349 43.4503 47.683 43.8243 48.0924ZM43.8241 46.3511L43.8239 43.4093C43.0711 43.4156 42.3143 43.4456 41.5629 43.4998C41.7972 44.5323 42.1489 45.5183 42.6345 46.4099C43.027 46.3744 43.425 46.3547 43.8241 46.3511ZM43.8239 43.0479L43.8237 39.8957H41.1955C41.185 40.9872 41.2764 42.086 41.4867 43.1424C42.263 43.0854 43.0454 43.0541 43.8239 43.0479ZM43.8237 39.5334L43.8235 36.5025C43.0734 36.4965 42.3196 36.4673 41.5712 36.4143C41.3894 37.2836 41.2685 38.1987 41.2194 39.1284C41.2122 39.2632 41.2069 39.3981 41.2028 39.5334H43.8237ZM43.8235 36.1411L43.8232 33.2003C43.4305 33.1966 43.0386 33.1773 42.6523 33.1428C42.2392 33.9957 41.8982 34.9873 41.6502 36.0571C42.3727 36.1072 43.0999 36.135 43.8235 36.1411ZM43.8232 32.8396L43.8231 31.3353C43.4628 31.7375 43.129 32.2309 42.8288 32.7951C43.1577 32.8212 43.4903 32.8362 43.8232 32.8396ZM40.5988 46.757C41.0279 46.6452 41.4767 46.5565 41.9366 46.491C42.0395 46.4763 42.1431 46.4628 42.2472 46.4505C41.774 45.5489 41.4302 44.5599 41.2001 43.5279C40.7462 43.5655 40.2949 43.6122 39.8483 43.668C39.1908 43.7501 38.5444 43.8519 37.9159 43.974C37.991 44.0967 38.0695 44.2183 38.1518 44.3383C38.7688 45.2387 39.585 46.0611 40.5988 46.757ZM41.9875 46.8491C41.6543 46.8965 41.3287 46.956 41.0136 47.0277C41.7209 47.4665 42.5154 47.8465 43.3963 48.1538C43.0346 47.7334 42.7153 47.2773 42.436 46.7929C42.2853 46.8092 42.1357 46.8279 41.9875 46.8491ZM45.7561 46.4597C46.3209 46.5298 46.8707 46.6337 47.3909 46.7712C48.4154 46.0718 49.2391 45.2436 49.8608 44.3363C49.9496 44.2068 50.0342 44.0755 50.1148 43.9429C49.0826 43.7433 47.9687 43.5975 46.8118 43.509C46.5812 44.5513 46.2345 45.5502 45.7561 46.4597ZM46.9775 47.0395C46.5249 46.9345 46.052 46.8547 45.5684 46.8002C45.29 47.2821 44.9722 47.7358 44.6122 48.1541C45.4859 47.8495 46.2745 47.4734 46.9775 47.0395ZM37.7234 43.6432C38.4007 43.5082 39.0971 43.3969 39.8045 43.3085C40.2409 43.254 40.6821 43.2082 41.1257 43.1709C40.9163 42.1029 40.825 40.9953 40.8352 39.8957H36.7201C36.7379 41.1833 37.0732 42.465 37.7234 43.6432ZM46.8857 43.1532C48.085 43.2466 49.239 43.401 50.3054 43.6126C50.9449 42.4428 51.2746 41.1721 51.2923 39.8957H47.1722C47.1824 40.9892 47.0924 42.0907 46.8857 43.1532ZM36.7237 39.5334H40.8423C40.8464 39.392 40.8519 39.2509 40.8594 39.11C40.9086 38.1791 41.0291 37.2614 41.2101 36.387C40.738 36.3487 40.2686 36.3008 39.8045 36.243C39.0986 36.1552 38.4037 36.0442 37.7276 35.9099C37.0979 37.058 36.7639 38.2949 36.7237 39.5334ZM47.165 39.5334H51.289C51.2493 38.3057 50.921 37.0794 50.3015 35.9398C49.211 36.1553 48.0289 36.3113 46.8004 36.4038C46.9794 37.2733 47.0985 38.1852 47.1475 39.1104C47.155 39.2512 47.1608 39.3922 47.165 39.5334ZM37.919 35.5788C38.5465 35.7003 39.1918 35.8018 39.8483 35.8836C40.3236 35.9427 40.8043 35.9913 41.2878 36.0299C41.5321 34.9633 41.8672 33.9691 42.2739 33.1037C42.0467 33.0772 41.8219 33.0454 41.6007 33.0079C41.242 32.9472 40.8925 32.872 40.5561 32.7829C39.5158 33.5257 38.6881 34.3941 38.0718 35.3363C38.0193 35.4166 37.9685 35.4974 37.919 35.5788ZM46.7234 36.0479C47.9109 35.9605 49.0544 35.8132 50.1122 35.6096C50.057 35.5181 49.9999 35.4273 49.9409 35.3371C49.3204 34.3887 48.4858 33.5149 47.4354 32.7688C46.8942 32.9144 46.3199 33.0233 45.7299 33.0954C46.1402 33.9676 46.478 34.9711 46.7234 36.0479ZM40.9568 32.51C41.1862 32.5636 41.421 32.6107 41.6599 32.6512C41.9168 32.6948 42.1784 32.7307 42.4431 32.7591C42.7268 32.206 43.0412 31.7138 43.3803 31.2987C42.4809 31.636 41.6732 32.0446 40.9568 32.51ZM45.5617 32.7529C46.0687 32.696 46.5643 32.6112 47.0369 32.4987C46.3241 32.0377 45.5211 31.6327 44.6277 31.298C44.9655 31.7117 45.2788 32.202 45.5617 32.7529ZM44.2246 30.8655H43.623C42.7008 30.8882 41.2387 31.8422 40.4843 32.3633C40.3922 32.3373 40.3011 32.3104 40.2113 32.2821C39.7589 32.1396 39.3377 31.9688 38.9604 31.7699L38.9603 31.7698C38.8357 31.8177 38.7108 31.868 38.5856 31.9204L38.5363 31.9411C38.6401 32.0019 38.7659 32.0758 38.7924 32.0898C39.1901 32.2994 39.6316 32.4787 40.104 32.6275L40.1139 32.6305C39.1423 33.3621 38.3597 34.2039 37.7656 35.1121C37.6867 35.2326 37.6114 35.3542 37.5392 35.4771C37.3848 35.4447 37.2313 35.4116 37.0795 35.3768C36.2125 35.1783 35.3876 34.9389 34.6241 34.6574C34.5378 34.7531 34.4537 34.85 34.3724 34.948L34.436 34.9726L34.4474 34.9769C35.2434 35.2734 36.1009 35.5237 36.9989 35.7293C37.1165 35.7563 37.235 35.7823 37.354 35.8077C36.7292 36.9818 36.3984 38.2433 36.3593 39.5073L32.5781 39.5109V39.689V39.8733L36.356 39.8697C36.3732 41.1828 36.7053 42.4891 37.3499 43.6937C37.2323 43.7189 37.1152 43.7449 36.9989 43.7717C36.1028 43.9775 35.247 44.2279 34.4524 44.5244C34.5359 44.6223 34.6218 44.7188 34.7101 44.814C35.4496 44.5452 36.2451 44.3158 37.0795 44.1241C37.2303 44.0895 37.3827 44.056 37.536 44.0238C37.6345 44.1901 37.7389 44.3543 37.8497 44.516C38.4414 45.3794 39.2084 46.1733 40.1489 46.8578C39.7705 46.975 39.4114 47.1119 39.0785 47.2679C38.9312 47.3369 38.7897 47.4094 38.655 47.4849L38.6554 47.4856C38.8013 47.5457 38.9489 47.6035 39.0983 47.6587C39.1422 47.637 39.1863 47.6158 39.231 47.5949C39.6246 47.4104 40.0587 47.2536 40.5207 47.125C40.5296 47.1225 41.9006 48.0489 43.3673 48.5008C43.505 48.5066 43.6433 48.5106 43.7824 48.5127H44.3597C45.3247 48.4898 46.6574 47.6607 47.4517 47.136C47.9623 47.28 48.4399 47.4584 48.8691 47.6714C49.0155 47.6174 49.1625 47.5602 49.3099 47.4999L49.3117 47.4967C48.87 47.25 48.3706 47.0421 47.8318 46.8734C48.7833 46.1848 49.558 45.3847 50.1547 44.514C50.2719 44.3428 50.3824 44.1689 50.4859 43.9925C51.5255 44.2112 52.4736 44.486 53.2884 44.8139C53.3808 44.7141 53.4706 44.613 53.5576 44.5106C52.7394 44.1946 51.6382 43.8712 50.67 43.6629C51.3042 42.4669 51.631 41.1716 51.6483 39.8697H55.4199V39.689V39.5073H51.6452C51.6066 38.254 51.281 37.0032 50.6664 35.8378C51.7424 35.6073 52.7207 35.317 53.555 34.9705L53.6235 34.9455C53.5421 34.8475 53.4582 34.7508 53.3719 34.6554C52.538 34.9974 51.5596 35.2829 50.4834 35.5082C50.4059 35.375 50.3242 35.2433 50.2389 35.1129C49.6402 34.1978 48.8504 33.3502 47.8683 32.6147C48.3932 32.4479 48.8801 32.2438 49.3117 32.0019L49.4419 31.9335C49.2976 31.8727 49.1517 31.8143 49.0038 31.7582C48.5538 31.9957 48.046 32.1931 47.4996 32.3502C46.6584 31.772 45.6887 31.2723 44.5901 30.8753C44.4688 30.8706 44.347 30.8673 44.2246 30.8655Z" fill="#4782A5"/>
<path fill-rule="evenodd" clip-rule="evenodd" d="M50.0074 41.1766C50.0024 41.2064 49.997 41.2361 49.9916 41.2658L49.9914 41.2658C49.9618 41.4275 49.9285 41.5766 49.8916 41.7127H49.8902C49.6855 42.4655 49.3212 43.1533 48.7978 43.775L48.7982 43.7753L48.7975 43.7761L48.7933 43.7804C48.654 43.9454 48.5073 44.1006 48.3534 44.2454C48.202 44.3877 48.04 44.5222 47.8678 44.6483C46.9997 45.2836 45.9525 45.6226 44.717 45.6226H44.7155V45.6212C44.155 45.621 43.628 45.5394 43.1388 45.3907C43.0485 45.3632 42.9698 45.3374 42.9031 45.3136C42.5018 45.1704 42.1287 44.9819 41.7863 44.757L41.7835 44.7556L41.7828 44.7551L41.783 44.7549C41.7317 44.7212 41.6693 44.6776 41.597 44.6255C41.5242 44.573 41.4634 44.5275 41.4146 44.489C41.3506 44.4385 41.2881 44.3867 41.2266 44.3332V45.2473V45.6096H40.8652H40.1436L39.7822 45.6097V45.2473V42.0972V41.7349H40.1436H40.8651H40.8652H41.2266V42.0124C41.6548 42.8384 42.2985 43.4299 43.032 43.7793C43.7114 44.103 44.4676 44.2209 45.2011 44.1267C45.9329 44.0328 46.6434 43.7276 47.2331 43.2053C47.8075 42.6964 48.2699 41.9785 48.5298 41.0448C47.9069 41.0771 47.2656 41.1835 46.6123 41.292C45.1296 41.5383 43.5859 41.7947 41.8943 41.2771L41.6366 41.1982L41.6388 40.9289L41.6432 40.3842L41.6437 40.3189L41.6461 40.0226L41.6515 39.355L41.6555 38.8581L42.1244 39.0139C43.5725 39.495 45.0245 39.2566 46.4764 39.0183C47.0667 38.9214 47.6572 38.8246 48.2569 38.7725C47.8054 37.8022 47.1548 37.1548 46.424 36.786C45.9478 36.5459 45.4361 36.422 44.9227 36.4028C44.4062 36.3835 43.8859 36.4699 43.3962 36.6497C42.4926 36.9814 41.6983 37.631 41.2266 38.5202V38.7962H40.8652H40.8651H40.1436H39.7822V38.4338V35.2838V34.9216L40.1436 34.9215H40.8652L41.2266 34.9216V35.2838V36.1375C41.3898 35.9968 41.568 35.8641 41.7644 35.7387L41.7658 35.7372L41.7672 35.7363L41.7675 35.7368C41.8877 35.6602 42.0107 35.5887 42.1362 35.5229C42.2717 35.4519 42.4005 35.3906 42.5224 35.3394H42.5238C43.1977 35.0561 43.942 34.9143 44.7563 34.9143H44.7573V34.9158C45.5982 34.9159 46.352 35.1028 47.0208 35.4353C47.1263 35.4876 47.2332 35.546 47.3408 35.6095C47.8757 35.9253 48.3498 36.336 48.7651 36.8175C49.0727 37.1741 49.3275 37.5327 49.5285 37.9078C49.6925 38.2138 49.8211 38.5307 49.9131 38.8656C49.9461 38.8707 49.9757 38.8754 50.0016 38.88C50.2913 38.9311 50.6064 39.0118 50.9059 39.1046L51.1615 39.1839L51.1614 39.45V40.0047V40.1118V40.3747V40.5234V41.0313V41.539L50.6829 41.3724L50.6706 41.3682C50.608 41.3464 50.5469 41.3261 50.4879 41.3072C50.4254 41.2873 50.3689 41.27 50.3188 41.2555C50.2057 41.2228 50.102 41.1968 50.0074 41.1766Z" fill="#283128"/>
<path fill-rule="evenodd" clip-rule="evenodd" d="M35.0339 40.1086C35.3852 40.1973 35.5882 39.9971 35.6149 39.7328C35.623 39.7007 35.6273 39.6684 35.6275 39.6371C35.6276 39.6044 35.6236 39.5666 35.6161 39.5249C35.5745 39.2542 35.3649 39.0899 35.0339 39.1492V40.1086ZM35.2006 41.1018L35.2005 41.3723H35.4366L35.4368 41.7346L35.437 42.1475L35.4372 42.5099H35.077H34.7637H34.4582H34.4023H34.0967H33.3753H33.0155L33.0153 42.1475L33.0151 41.7346L33.0149 41.3723H33.2645L33.2593 39.1466H33.0029L33.0084 38.78L33.0153 38.3126L33.0206 37.9546H33.3753H34.0967H34.4023H34.4582H34.5966H34.7637V37.9564C35.171 37.965 35.5784 38.0107 35.9165 38.1763C36.3565 38.3917 36.6548 38.7755 36.6607 39.4582C36.6659 40.0627 36.4966 40.4832 36.164 40.7589C35.9178 40.9628 35.5959 41.0708 35.2006 41.1018Z" fill="#F7E123"/>
<path fill-rule="evenodd" clip-rule="evenodd" d="M39.2687 39.6205H38.7747H38.4179L38.4147 39.261L38.414 39.1772L38.3536 39.178V41.3513H38.6153V41.7136V42.1475V42.5099H38.2539H37.9169H37.6113H37.5554H37.2499H37.1926H36.8312V42.5084H36.5548H36.1934V42.1475V41.7136V41.3513H36.4532V39.1676H36.1934V38.8053V38.3169V37.956H36.5548H36.8312V37.9546H37.1926H37.5554H37.9169V37.956H39.2687H39.6301V38.3169V39.2582V39.6205H39.2687Z" fill="#F7E123"/>
<path fill-rule="evenodd" clip-rule="evenodd" d="M49.3423 40.48C49.3374 40.5099 49.332 40.5395 49.3266 40.5693L49.3263 40.5692C49.2968 40.731 49.2634 40.8801 49.2265 41.0161H49.2251C49.0204 41.769 48.6561 42.4568 48.1328 43.0785L48.1331 43.0788L48.1325 43.0795L48.1283 43.0838C47.9889 43.2489 47.8422 43.4041 47.6883 43.5488C47.5369 43.6912 47.375 43.8257 47.2027 43.9518C46.3347 44.587 45.2875 44.9261 44.052 44.9261H44.0505V44.9246C43.49 44.9245 42.963 44.8428 42.4738 44.6941C42.3835 44.6667 42.3048 44.6409 42.238 44.6171C41.8368 44.4738 41.4637 44.2854 41.1213 44.0605L41.1184 44.059L41.1178 44.0586L41.1179 44.0584C41.0667 44.0247 41.0043 43.9811 40.9319 43.929C40.8592 43.8765 40.7984 43.831 40.7496 43.7925C40.6856 43.742 40.6231 43.6901 40.5616 43.6367V44.5507V44.913H40.2001H39.4786L39.1172 44.9131V44.5507V41.4007V41.0384H39.4786H40.2001H40.2001H40.5616V41.3159C40.9898 42.1419 41.6335 42.7334 42.367 43.0828C43.0464 43.4065 43.8026 43.5243 44.536 43.4302C45.2679 43.3363 45.9784 43.0311 46.5681 42.5087C47.1425 41.9999 47.6048 41.282 47.8648 40.3483C47.2419 40.3806 46.6006 40.487 45.9472 40.5955C44.4645 40.8418 42.9209 41.0982 41.2292 40.5805L40.9716 40.5017L40.9737 40.2323L40.9781 39.6876L40.9786 39.6223L40.981 39.3261L40.9864 38.6585L40.9905 38.1616L41.4594 38.3174C42.9075 38.7985 44.3595 38.5601 45.8114 38.3217C46.4017 38.2249 46.9921 38.1281 47.5918 38.076C47.1403 37.1056 46.4898 36.4582 45.7589 36.0895C45.2827 35.8493 44.7711 35.7255 44.2576 35.7063C43.7411 35.687 43.2208 35.7734 42.7312 35.9532C41.8275 36.2849 41.0333 36.9345 40.5616 37.8237V38.0996H40.2001H40.2001H39.4786H39.1172V37.7373V34.5873V34.225L39.4786 34.2249H40.2001L40.5616 34.225V34.5873V35.441C40.7247 35.3003 40.903 35.1676 41.0994 35.0421L41.1008 35.0407L41.1022 35.0398L41.1025 35.0402C41.2227 34.9637 41.3457 34.8921 41.4712 34.8263C41.6066 34.7553 41.7355 34.6941 41.8573 34.6428H41.8588C42.5327 34.3596 43.277 34.2178 44.0913 34.2178H44.0923V34.2192C44.9331 34.2194 45.6869 34.4063 46.3558 34.7387C46.4612 34.7911 46.5681 34.8494 46.6758 34.913C47.2107 35.2288 47.6848 35.6395 48.1 36.121C48.4076 36.4776 48.6625 36.8361 48.8635 37.2113C49.0274 37.5173 49.156 37.8341 49.2481 38.169C49.281 38.1741 49.3107 38.1788 49.3366 38.1835C49.6262 38.2346 49.9414 38.3153 50.2409 38.4081L50.4965 38.4874L50.4964 38.7535V39.3082V39.4153V39.6782V39.8268V40.3348V40.8424L50.0178 40.6759L50.0055 40.6716C49.9429 40.6499 49.8819 40.6295 49.8229 40.6107C49.7604 40.5908 49.7039 40.5734 49.6537 40.5589C49.5407 40.5263 49.4369 40.5002 49.3423 40.48Z" fill="#F6E125"/>
<path fill-rule="evenodd" clip-rule="evenodd" d="M54.6379 37.9368L54.9978 37.9388V38.2977V38.8019V39.1642H54.7404L54.766 40.8689V40.8704L54.7661 40.8862V40.8919C54.7656 40.9447 54.7611 40.9961 54.7528 41.0447C54.7456 41.0873 54.7336 41.1366 54.7179 41.1915C54.5143 41.8971 54.0173 42.4048 53.2747 42.547L51.8095 42.5511L51.4502 42.5521L51.4495 42.1902L51.4483 41.441L51.4477 41.0692L51.8182 41.0801L52.2654 41.0933L52.5997 41.1032L52.6116 41.3549L52.8541 41.3569L52.8524 41.1279L52.7567 41.1202L52.7285 41.116C52.27 41.0431 51.9633 40.8613 51.7541 40.6102C51.5496 40.3646 51.453 40.0677 51.4035 39.7486L51.3994 39.7212V39.6934L51.4006 39.1642H51.168V38.8019V38.2977V37.9331L51.5322 37.9368L52.4406 37.9461C52.5213 37.947 52.602 37.9472 52.6828 37.9475L52.6662 39.1319L52.5004 39.1288L52.4977 39.7427C52.4966 40.0078 52.8091 40.2249 52.997 40.227L52.9907 39.1381L52.7108 39.1328L52.7275 37.9477C53.3636 37.9486 54.0016 37.9333 54.6379 37.9368Z" fill="#F7E123"/>
<path fill-rule="evenodd" clip-rule="evenodd" d="M37.1366 42.1475H36.5547V41.7136H36.8145V38.8053H36.5547V38.3169H37.1366V42.1475ZM37.1925 42.1475H37.5553V38.3169H37.1925V42.1475ZM39.2686 39.2581H38.7746L38.7707 38.8118L37.9921 38.8215V41.7136H38.2538V42.1475H37.6112V38.3169H39.2686V39.2581Z" fill="#283128"/>
<path fill-rule="evenodd" clip-rule="evenodd" d="M49.0338 40.0693C48.932 41.1112 48.5388 42.0384 47.8545 42.8495C46.9198 43.957 45.6608 44.5638 44.0529 44.5638C43.0043 44.5638 42.0842 44.2596 41.3198 43.7576C40.8932 43.4774 40.5203 43.1385 40.201 42.7418V44.5507H39.4795V41.4007H40.201H40.201V41.4008C41.9678 44.9751 47.4009 44.6684 48.3238 39.978C46.1349 39.9479 43.8692 41.0108 41.3346 40.2352L41.339 39.6904C44.4892 40.3257 46.3365 39.4824 48.2434 39.422V39.0191C46.4139 39.0719 44.4784 39.8601 41.3419 39.3289L41.3473 38.6613C43.6428 39.424 45.8617 38.4898 48.1187 38.4041C46.5622 34.1437 41.7143 34.7228 40.201 37.7371V37.7373H40.201H39.4795V34.5873H40.201V36.3607C40.4931 35.9645 40.8436 35.6339 41.2937 35.3464C42.0931 34.8356 43.026 34.5801 44.0921 34.5801C45.6565 34.5801 46.8946 35.2745 47.8284 36.3574C48.4084 37.0298 48.7875 37.7058 48.9574 38.4958C49.3134 38.5302 49.7405 38.631 50.1359 38.7535V39.3082C49.7659 39.172 49.4065 39.0914 49.0491 39.0505V39.4488C49.4007 39.4852 49.7602 39.5572 50.1359 39.6782V40.3348C49.6638 40.17 49.2926 40.086 49.0338 40.0693Z" fill="#283128"/>
<path fill-rule="evenodd" clip-rule="evenodd" d="M54.0545 38.2947L54.6333 38.2979V38.8021H54.3719L54.4029 40.8735C54.4086 41.0762 54.264 41.4185 54.0545 41.7027V38.2947ZM53.633 38.2924L53.9987 38.2944V41.7751C53.8879 41.9126 53.7622 42.0309 53.633 42.1048V38.2924ZM53.2347 40.2769L53.2248 38.7957L52.9366 38.7928V38.2886L53.5771 38.2921V42.1339C53.5015 42.1694 53.4253 42.1885 53.3501 42.1862L51.8065 42.1904L51.8052 41.4412L52.2525 41.4544L52.2648 41.7132L53.2139 41.7211L53.2067 40.7938L52.7819 40.7596C52.0579 40.6444 51.8368 40.2133 51.7563 39.6937L51.7583 38.8021H51.5264V38.2979L52.4348 38.3073V38.8115H52.2708L52.2669 39.7448C52.3052 39.9947 52.472 40.1718 52.7674 40.2762L53.2347 40.2769Z" fill="#283128"/>
<path fill-rule="evenodd" clip-rule="evenodd" d="M34.4021 42.1475H33.3751L33.3749 41.7346H33.6251L33.6183 38.7843H33.3682L33.3751 38.3169H34.4021V42.1475ZM34.8478 40.2872C35.4502 40.366 35.8466 40.0496 35.8482 39.5634C35.8501 38.9949 35.4414 38.7752 34.8478 38.8252V40.2872ZM34.8405 40.7487L34.8403 41.7346H35.0766L35.0768 42.1475H34.458V38.3169H34.5964C35.4312 38.3169 36.2917 38.4286 36.3006 39.461C36.309 40.4335 35.8005 40.7766 34.8405 40.7487Z" fill="#283128"/>
<path fill-rule="evenodd" clip-rule="evenodd" d="M48.5304 49.597L48.8299 51.0096L49.243 50.9216L49.3041 51.2094L48.199 51.4448L48.138 51.1571L48.5499 51.0692L48.2504 49.6566L48.5304 49.597ZM50.1119 49.1735L50.5607 50.8527L49.5412 51.1265L49.4653 50.8424L50.2083 50.6428L50.1087 50.2706L49.4184 50.456L49.3429 50.1734L50.0332 49.9879L49.911 49.5309L49.1432 49.7371L49.0675 49.4541L50.1119 49.1735ZM50.9303 48.8414L51.4466 50.1897L51.8409 50.0379L51.9461 50.3126L50.8914 50.7185L50.7862 50.4438L51.1793 50.2925L50.6631 48.9442L50.9303 48.8414ZM52.5409 48.1046L53.2738 49.6801L53.0261 49.7959L52.5378 48.746L52.5051 50.0395L52.2445 50.1613L51.5117 48.5857L51.7593 48.4699L52.2373 49.4974L52.2793 48.2269L52.5409 48.1046ZM53.3419 48.3778L53.0501 48.4394C52.9809 48.2523 52.964 48.0939 52.9999 47.9635C53.0359 47.8333 53.1157 47.7277 53.2394 47.6472C53.3948 47.5461 53.5596 47.5242 53.7339 47.5812C53.9349 47.6472 54.1116 47.798 54.2641 48.0333C54.4251 48.2821 54.4954 48.513 54.4743 48.7266C54.456 48.9117 54.3652 49.0576 54.2011 49.1645C54.0676 49.2514 53.9261 49.2783 53.777 49.2457C53.6707 49.2221 53.5613 49.1564 53.4485 49.0478L53.6415 48.8233C53.708 48.8924 53.7773 48.9332 53.8498 48.9457C53.9226 48.9583 53.9896 48.9445 54.051 48.9046C54.139 48.8473 54.186 48.7622 54.1916 48.649C54.1974 48.5362 54.1429 48.3911 54.0281 48.2139C53.9093 48.0302 53.7975 47.9172 53.6931 47.8751C53.5886 47.8326 53.4931 47.8397 53.4065 47.8961C53.3427 47.9376 53.304 47.9981 53.2897 48.0773C53.2755 48.157 53.2928 48.2573 53.3419 48.3778ZM55.4517 47.9349L55.1625 47.5361L55.0342 47.6296C54.948 47.6924 54.8938 47.7409 54.8715 47.7756C54.8496 47.8101 54.84 47.8506 54.8435 47.8966C54.8465 47.9429 54.8647 47.9887 54.8982 48.0348C54.9319 48.0814 54.9707 48.1136 55.014 48.1307C55.0578 48.1477 55.0985 48.1507 55.1366 48.1399C55.1744 48.1288 55.2416 48.088 55.3386 48.0173L55.4517 47.9349ZM54.8365 46.5979L55.8558 48.0043L55.4823 48.2762C55.3432 48.3776 55.2474 48.4369 55.1949 48.4546C55.111 48.4827 55.0211 48.4772 54.9255 48.4388C54.8295 48.4001 54.7411 48.3249 54.6598 48.2129C54.586 48.1111 54.5437 48.0119 54.5321 47.9153C54.5204 47.8187 54.5336 47.7356 54.5709 47.6659C54.6079 47.5964 54.6966 47.5102 54.8371 47.4079L54.9894 47.297L54.6048 46.7666L54.8365 46.5979ZM55.8217 45.6876L56.982 46.9795L56.1977 47.6875L56.0014 47.4688L56.5729 46.9529L56.3158 46.6665L55.7847 47.1459L55.5893 46.9285L56.1204 46.449L55.8046 46.0974L55.2138 46.6307L55.0182 46.4129L55.8217 45.6876ZM57.1522 45.3037L56.7869 45.0176L56.6229 45.2281C56.551 45.3203 56.51 45.3831 56.499 45.4166C56.4881 45.4503 56.4901 45.4873 56.5045 45.5274C56.5191 45.5671 56.5478 45.6039 56.5915 45.638C56.6363 45.6732 56.6803 45.6923 56.7239 45.696C56.7678 45.6997 56.8075 45.6902 56.8426 45.6673C56.8781 45.6442 56.9338 45.584 57.0092 45.4871L57.1522 45.3037ZM57.6956 45.7293L57.3796 45.4818L57.2631 45.6315C57.1932 45.7211 57.1517 45.7778 57.1381 45.8017C57.1141 45.845 57.107 45.8877 57.1163 45.9304C57.1256 45.9728 57.1532 46.0118 57.1987 46.0474C57.2391 46.0791 57.2787 46.0961 57.3177 46.0979C57.3567 46.0998 57.3889 46.0906 57.415 46.0704C57.4406 46.05 57.5003 45.98 57.5935 45.8604L57.6956 45.7293ZM58.0994 45.6813L57.7488 46.1311C57.6533 46.2536 57.575 46.3313 57.5135 46.3634C57.4525 46.3956 57.3802 46.4069 57.2967 46.3969C57.2139 46.387 57.1362 46.3539 57.0649 46.298C56.999 46.2465 56.951 46.1852 56.9207 46.1142C56.8904 46.0432 56.8805 45.9744 56.8913 45.9079C56.8159 45.9561 56.735 45.9765 56.6484 45.9692C56.5619 45.9627 56.4776 45.9268 56.3954 45.8625C56.2962 45.7847 56.2308 45.6945 56.1996 45.5931C56.1682 45.4914 56.1701 45.4015 56.2048 45.3234C56.2293 45.2691 56.3057 45.159 56.4348 44.9935L56.7328 44.611L58.0994 45.6813ZM57.5623 43.4266L58.9828 44.4237L58.8259 44.6482L57.8794 43.9837L58.4962 45.1203L58.3313 45.3564L56.9109 44.3593L57.0676 44.1349L57.9939 44.7851L57.3967 43.6637L57.5623 43.4266ZM58.0954 42.0824L59.7032 42.7335L59.5961 42.9996L58.9635 42.7434L58.7524 43.267L59.385 43.5232L59.2774 43.7904L57.6695 43.1391L57.7772 42.872L58.4802 43.1567L58.6912 42.6332L57.9882 42.3484L58.0954 42.0824ZM58.6766 41.3169L59.9979 41.0404L59.9364 41.3571L58.9896 41.5094L59.8188 41.9634L59.7622 42.2559L58.56 41.5321C58.4136 41.4434 58.3135 41.3653 58.2594 41.2982C58.2057 41.2317 58.1864 41.1599 58.2011 41.084C58.2152 41.0109 58.235 40.9472 58.26 40.8926L58.5144 40.9422C58.5022 40.9881 58.4937 41.0232 58.489 41.0474C58.4759 41.1153 58.4807 41.1662 58.504 41.1992C58.5276 41.2326 58.585 41.2719 58.6766 41.3169ZM60.5516 39.2213L60.577 39.3521C60.4674 39.366 60.3776 39.3513 60.3089 39.3082C60.2396 39.2649 60.1975 39.2025 60.1816 39.121C60.1659 39.0392 60.1815 38.9657 60.2297 38.8994C60.2773 38.8336 60.3549 38.7859 60.4616 38.7573L60.4868 38.8876C60.3775 38.9193 60.3324 38.9861 60.3521 39.0879C60.3718 39.1892 60.4384 39.2339 60.5516 39.2213ZM58.2559 38.9088L59.9581 38.5771L60.0102 38.846L58.876 39.0671L60.1199 39.4118L60.1748 39.6947L58.4726 40.0264L58.4204 39.7575L59.5305 39.5412L58.3109 39.1929L58.2559 38.9088ZM57.9656 37.5002L59.6678 37.1686L59.72 37.4375L58.5856 37.6585L59.8297 38.0033L59.8846 38.2862L58.1823 38.6179L58.1301 38.3489L59.2403 38.1326L58.0207 37.7844L57.9656 37.5002ZM57.5628 36.3522L59.1344 35.6176L59.2554 35.8777L58.5865 36.1904C58.6204 36.2451 58.6589 36.2762 58.7007 36.2835C58.7429 36.2909 58.8334 36.2844 58.9717 36.2639C59.1103 36.2438 59.2167 36.2405 59.2901 36.254C59.3636 36.2675 59.4174 36.2937 59.45 36.3325C59.4828 36.3712 59.5267 36.4435 59.5821 36.5493L59.3465 36.6595L59.3293 36.6228C59.2952 36.5491 59.2547 36.5072 59.2084 36.4967C59.1626 36.4864 59.0842 36.4904 58.9745 36.5083C58.8644 36.5262 58.7885 36.5327 58.7474 36.5277C58.7063 36.5233 58.6596 36.5063 58.6077 36.4775C58.6107 36.5457 58.5944 36.6105 58.558 36.6712C58.5223 36.7322 58.4539 36.8172 58.3531 36.926L58.0052 37.3035L57.8628 36.9971L58.1964 36.6514C58.2821 36.5635 58.3384 36.4957 58.3666 36.4481C58.3944 36.4007 58.3958 36.3483 58.371 36.2911L57.6838 36.6123L57.5628 36.3522ZM57.8382 35.5452L57.9047 35.8367C57.7192 35.9093 57.5616 35.9289 57.4308 35.8953C57.3005 35.8615 57.1937 35.7832 57.1113 35.6607C57.0077 35.5067 56.983 35.3419 57.0367 35.1663C57.0991 34.9635 57.2464 34.7838 57.4785 34.6269C57.7238 34.4611 57.9528 34.3867 58.1662 34.4041C58.3511 34.4192 58.4983 34.5076 58.6077 34.6703C58.6968 34.8026 58.7261 34.9438 58.6961 35.094C58.6745 35.2009 58.6108 35.3118 58.5045 35.4267L58.2772 35.2372C58.345 35.1693 58.3845 35.0991 58.3958 35.0261C58.4069 34.953 58.3921 34.8861 58.3512 34.8253C58.2925 34.7381 58.2068 34.6924 58.0938 34.6888C57.9811 34.6849 57.8374 34.7421 57.6627 34.8602C57.4815 34.9827 57.3708 35.0966 57.3306 35.202C57.2901 35.3075 57.2987 35.4031 57.3567 35.489C57.3991 35.5521 57.46 35.5899 57.5394 35.6027C57.619 35.6156 57.7189 35.5966 57.8382 35.5452ZM55.9505 34.1158L57.2594 32.9752L57.9518 33.7737L57.7303 33.9668L57.2256 33.3848L56.9355 33.6376L57.4044 34.1784L57.1841 34.3703L56.7153 33.8296L56.359 34.14L56.8805 34.7416L56.6599 34.9338L55.9505 34.1158ZM55.6207 32.3192L56.0274 31.8503L56.2434 32.0386L55.9415 32.3868C55.8784 32.4595 55.8346 32.5163 55.8103 32.5573C55.7853 32.5983 55.777 32.6436 55.7845 32.6931C55.7923 32.7427 55.8268 32.7942 55.888 32.8476C55.9797 32.9276 56.0736 32.9675 56.1697 32.9676L56.6602 32.4019L56.8763 32.5902L55.7387 33.9021L55.5227 33.7139L55.9806 33.1857C55.855 33.1584 55.7494 33.1069 55.6636 33.0323C55.5449 32.9287 55.4814 32.8144 55.4734 32.6896C55.4654 32.5651 55.5145 32.4417 55.6207 32.3192ZM53.7764 32.3206L54.8201 30.9322L55.0383 31.0971L54.343 32.0223L55.4975 31.444L55.7271 31.6175L54.6834 33.0058L54.4653 32.841L55.1457 31.9355L54.007 32.4948L53.7764 32.3206ZM52.3442 31.4557L53.2373 29.9655L53.6052 30.1872L53.217 31.3369L54.0454 30.4523L54.4143 30.6746L53.5211 32.1647L53.2931 32.0273L53.9961 30.8543L53.0508 31.8813L52.8135 31.7383L53.2764 30.4206L52.5732 31.5936L52.3442 31.4557ZM51.5126 30.1493C51.4283 30.3306 51.3996 30.4824 51.4258 30.6049C51.4525 30.7278 51.5162 30.8129 51.618 30.8605C51.7201 30.9083 51.8256 30.9026 51.9347 30.8442C52.0438 30.7858 52.1413 30.6635 52.228 30.4771C52.313 30.2943 52.3432 30.1442 52.3185 30.0259C52.294 29.9081 52.2286 29.8244 52.1229 29.775C52.0171 29.7256 51.9103 29.7292 51.8031 29.7863C51.6954 29.8436 51.5986 29.9645 51.5126 30.1493ZM51.2398 30.0348C51.3272 29.847 51.4265 29.7053 51.5385 29.61C51.6503 29.5143 51.7648 29.4576 51.8818 29.4399C51.9987 29.4222 52.1209 29.4432 52.2482 29.5027C52.4327 29.5889 52.5499 29.7294 52.6006 29.9251C52.6509 30.1205 52.6155 30.3488 52.4942 30.6096C52.3717 30.873 52.2143 31.0504 52.0225 31.1412C51.8535 31.222 51.6767 31.2189 51.4915 31.1323C51.3049 31.0451 51.188 30.9114 51.1403 30.7314C51.0862 30.5257 51.1195 30.2934 51.2398 30.0348ZM49.5748 30.3618L50.1395 28.7181L50.4101 28.8115L50.188 29.4582L50.7206 29.6421L50.9427 28.9953L51.2145 29.0892L50.6499 30.7329L50.3781 30.6391L50.6249 29.9203L50.0924 29.7364L49.8455 30.4552L49.5748 30.3618ZM48.5347 29.1845C48.483 29.3777 48.4811 29.5322 48.5281 29.6483C48.5756 29.7646 48.6532 29.8374 48.7616 29.8665C48.8704 29.8958 48.9733 29.8719 49.0707 29.7953C49.168 29.7188 49.2428 29.5814 49.296 29.3827C49.348 29.188 49.3517 29.0348 49.3069 28.9227C49.2623 28.8109 49.1834 28.7399 49.0707 28.7097C48.958 28.6794 48.8535 28.7016 48.7578 28.7764C48.6617 28.8516 48.5873 28.9875 48.5347 29.1845ZM48.2461 29.1192C48.2996 28.919 48.3729 28.7622 48.4667 28.6488C48.5602 28.5352 48.6632 28.4594 48.7753 28.4216C48.8874 28.3838 49.0114 28.3832 49.147 28.4196C49.3436 28.4724 49.4835 28.5904 49.5673 28.7743C49.6507 28.958 49.6554 29.1889 49.5811 29.4669C49.506 29.7476 49.3818 29.9497 49.2086 30.0725C49.0561 30.1816 48.8815 30.2093 48.6841 30.1562C48.4852 30.1028 48.347 29.9915 48.2688 29.8225C48.1799 29.6294 48.1725 29.3948 48.2461 29.1192ZM46.8978 29.7359L47.2287 28.0294L47.5097 28.0842L47.3688 28.8104C47.4329 28.8151 47.4807 28.8021 47.5111 28.7726C47.542 28.7427 47.5899 28.6655 47.6547 28.5413C47.7199 28.417 47.7798 28.3289 47.8338 28.2771C47.8879 28.2255 47.9406 28.1974 47.9911 28.1936C48.0416 28.1898 48.1258 28.1968 48.2437 28.214L48.1942 28.4699L48.1545 28.4621C48.0749 28.4466 48.0173 28.4548 47.9816 28.4862C47.9464 28.5173 47.9036 28.5831 47.8535 28.6826C47.8032 28.7825 47.7639 28.8479 47.7357 28.8782C47.708 28.909 47.6668 28.9369 47.613 28.9619C47.6698 28.9998 47.7125 29.0511 47.7402 29.1162C47.7683 29.1811 47.7969 29.2864 47.8254 29.4322L47.9256 29.9361L47.5945 29.8716L47.5116 29.3978C47.4911 29.2767 47.4694 29.1912 47.4476 29.1404C47.4257 29.0899 47.3842 29.058 47.3235 29.0445L47.1788 29.7906L46.8978 29.7359ZM45.9653 28.9314L45.9858 28.6378L46.4305 28.669C46.4265 28.5231 46.3964 28.4086 46.3407 28.3259C46.2849 28.2429 46.2099 28.1983 46.1165 28.1918C45.9638 28.1811 45.8556 28.27 45.7919 28.4591L45.5154 28.3614C45.559 28.1993 45.6342 28.0784 45.7415 27.9979C45.8487 27.9174 45.9774 27.8825 46.1276 27.8931C46.3274 27.9071 46.4812 27.9994 46.5891 28.1709C46.6969 28.342 46.7411 28.5671 46.7217 28.8453C46.7029 29.1142 46.6296 29.3253 46.5015 29.4782C46.3734 29.6315 46.2124 29.701 46.0179 29.6874C45.6948 29.6647 45.5084 29.465 45.4598 29.0883L45.7543 28.9985C45.76 29.1187 45.7891 29.2124 45.8419 29.2798C45.8947 29.3472 45.9633 29.3841 46.0483 29.3901C46.2364 29.4032 46.3569 29.2607 46.41 28.9626L45.9653 28.9314ZM43.4993 27.3412L43.6317 27.3296C43.634 27.4404 43.6101 27.5282 43.5601 27.5922C43.5099 27.6568 43.4436 27.6923 43.3611 27.6994C43.2783 27.7068 43.207 27.6834 43.1463 27.6285C43.086 27.5742 43.0468 27.4918 43.0295 27.3824L43.1615 27.3708C43.1814 27.4833 43.2431 27.5352 43.346 27.5262C43.4487 27.5171 43.5 27.4554 43.4993 27.3412ZM42.9492 29.5974L42.7981 27.8656L43.0704 27.8417L43.1711 28.9957L43.6432 27.7914L43.9296 27.7663L44.0807 29.4981L43.8084 29.522L43.7098 28.3926L43.2369 29.5722L42.9492 29.5974ZM42.4065 29.619L42.2553 27.8871L42.5405 27.8622L42.6916 29.594L42.4065 29.619ZM41.2168 28.9676L41.2566 29.4244L41.5583 29.398C41.6368 29.3911 41.693 29.3809 41.7271 29.3673C41.7612 29.3537 41.7895 29.3256 41.8127 29.2842C41.8354 29.2424 41.8447 29.1961 41.8403 29.1449C41.8268 28.9913 41.7236 28.9232 41.5301 28.9401L41.2168 28.9676ZM40.9971 29.7426L40.8459 28.0107L41.1311 27.9858L41.1912 28.6745L41.5966 28.6389C41.7475 28.6256 41.8712 28.664 41.9681 28.7534C42.0651 28.8428 42.1206 28.9671 42.1345 29.1264C42.1458 29.2562 42.1203 29.3771 42.0579 29.4894C41.9956 29.6018 41.8731 29.6658 41.6901 29.6818L40.9971 29.7426ZM39.5564 29.9708L39.2255 28.2643L39.5065 28.2095L39.6367 28.881L40.1896 28.7732L40.0594 28.1018L40.3416 28.0468L40.6724 29.7533L40.3902 29.8083L40.2456 29.0622L39.6927 29.1698L39.8374 29.9161L39.5564 29.9708ZM38.1682 30.3227L37.6902 28.6516L37.9653 28.5726L38.1534 29.2301L38.6948 29.0744L38.5068 28.4169L38.7831 28.3375L39.2611 30.0085L38.9848 30.088L38.7757 29.3573L38.2343 29.513L38.4434 30.2436L38.1682 30.3227ZM36.9362 30.7477L36.3148 29.1248L37.3001 28.7456L37.4053 29.0203L36.6872 29.2966L36.825 29.6564L37.4922 29.3997L37.5968 29.6728L36.9296 29.9296L37.0987 30.3714L37.8409 30.0857L37.9457 30.3593L36.9362 30.7477ZM35.5646 30.4926L35.7457 30.9203L35.991 30.8159C36.0984 30.7702 36.1648 30.7354 36.1906 30.7112C36.2163 30.687 36.2325 30.6538 36.2393 30.6118C36.2456 30.5699 36.2383 30.5238 36.2167 30.4728C36.1945 30.4201 36.1653 30.3821 36.129 30.3575C36.0923 30.333 36.053 30.3221 36.0112 30.325C35.969 30.328 35.8913 30.3535 35.7783 30.4017L35.5646 30.4926ZM35.2951 29.8561L35.4518 30.2262L35.6261 30.152C35.7306 30.1075 35.7944 30.0782 35.8178 30.0638C35.8598 30.0376 35.8866 30.0038 35.8992 29.9619C35.9113 29.9202 35.9062 29.8727 35.8836 29.8195C35.8636 29.7722 35.8373 29.738 35.804 29.7175C35.7707 29.6969 35.7381 29.6893 35.7056 29.6943C35.6732 29.6997 35.5873 29.7319 35.4479 29.7911L35.2951 29.8561ZM34.9189 29.7019L35.4429 29.479C35.5856 29.4182 35.6918 29.3884 35.7611 29.3901C35.83 29.3916 35.8987 29.4169 35.9669 29.4661C36.0346 29.5151 36.0865 29.5819 36.1219 29.6653C36.1545 29.7424 36.1669 29.8194 36.159 29.8961C36.1512 29.973 36.1266 30.038 36.085 30.0909C36.1743 30.0854 36.2549 30.1069 36.3271 30.1554C36.3996 30.2032 36.4561 30.2755 36.4967 30.3716C36.546 30.4879 36.5596 30.5986 36.5377 30.7025C36.5161 30.8066 36.4709 30.8843 36.4027 30.9357C36.3551 30.9714 36.2349 31.0304 36.042 31.1125L35.5964 31.3022L34.9189 29.7019ZM34.8261 31.7156L34.1276 30.4525L33.7582 30.6577L33.6159 30.4004L34.604 29.8514L34.7463 30.1087L34.378 30.3133L35.0764 31.5765L34.8261 31.7156ZM33.7024 31.6128L33.9919 31.5409C34.0676 31.7255 34.0899 31.8832 34.0587 32.0149C34.0273 32.1462 33.9511 32.2545 33.8303 32.3393C33.6785 32.4458 33.5145 32.4735 33.3385 32.4226C33.1351 32.3637 32.9533 32.2191 32.7929 31.9894C32.6231 31.7463 32.545 31.518 32.5586 31.3038C32.5704 31.1182 32.656 30.9692 32.8164 30.8566C32.9468 30.7651 33.0871 30.7333 33.2374 30.7607C33.3444 30.7804 33.4561 30.8423 33.5725 30.9469L33.3875 31.1781C33.3187 31.1113 33.248 31.0729 33.175 31.063C33.1019 31.053 33.0353 31.0691 32.9755 31.1111C32.8895 31.1714 32.8455 31.2581 32.8438 31.3715C32.8419 31.4845 32.9014 31.6275 33.0223 31.8006C33.1475 31.98 33.2632 32.089 33.369 32.1275C33.4749 32.1662 33.5701 32.1558 33.6547 32.0964C33.7169 32.0528 33.7536 31.9909 33.765 31.9113C33.7765 31.831 33.7558 31.7315 33.7024 31.6128ZM31.6221 32.1649L31.9249 32.5534L32.0499 32.4555C32.1339 32.3897 32.1863 32.3393 32.2074 32.3038C32.2281 32.2686 32.2363 32.2278 32.2312 32.182C32.2265 32.1358 32.2068 32.0907 32.1717 32.0457C32.1364 32.0004 32.0965 31.9695 32.0526 31.954C32.0082 31.9385 31.9675 31.937 31.9298 31.9491C31.8924 31.9614 31.8266 32.0047 31.7322 32.0786L31.6221 32.1649ZM32.2834 33.4796L31.2158 32.1097L31.5795 31.8249C31.715 31.7187 31.8087 31.6561 31.8605 31.6365C31.9435 31.6056 32.0335 31.608 32.1304 31.643C32.2276 31.6783 32.3187 31.7504 32.4036 31.8594C32.481 31.9586 32.5268 32.0563 32.5417 32.1523C32.5567 32.2485 32.5465 32.332 32.5116 32.403C32.4771 32.4737 32.3914 32.5629 32.2546 32.6701L32.1063 32.7863L32.509 33.3029L32.2834 33.4796ZM31.3071 33.4855L30.7031 33.1887L31.0424 33.77L31.3071 33.4855ZM32.1692 33.567L31.9563 33.7958L31.5833 33.6176L31.1962 34.0337L31.4045 34.389L31.1963 34.6129L30.3056 33.0214L30.513 32.7985L32.1692 33.567ZM29.7015 34.1771L29.4646 34.5291C29.8887 34.8158 30.1847 35.0629 30.3511 35.2701L30.6534 34.8208L29.7015 34.1771ZM30.8135 34.5829L30.8823 34.4806L31.4387 34.8567L31.3071 35.0524L30.9941 34.8407L30.4919 35.587L30.8049 35.7987L30.6734 35.9943L30.117 35.6181L30.1831 35.5198C30.1087 35.4133 30.0069 35.301 29.8789 35.1837C29.7503 35.0665 29.545 34.912 29.2625 34.721L29.0704 34.5911L29.6192 33.7753L30.8135 34.5829ZM29.5829 36.1816L28.2369 36.0822L28.383 35.7948L29.3349 35.9099L28.6627 35.2444L28.7976 34.979L29.7542 36.0069C29.8706 36.1326 29.9453 36.2353 29.9789 36.3147C30.0122 36.3935 30.0111 36.4679 29.976 36.5368C29.9423 36.6031 29.9058 36.659 29.8668 36.7045L29.6359 36.5865C29.6602 36.5458 29.6779 36.5144 29.6891 36.4924C29.7204 36.4307 29.7297 36.3804 29.7165 36.3424C29.703 36.3037 29.6586 36.2501 29.5829 36.1816ZM28.9937 37.1032L29.1478 36.8472C29.3315 36.9241 29.4585 37.0197 29.5293 37.1349C29.5997 37.2501 29.6222 37.3807 29.5966 37.5262C29.5644 37.7091 29.4679 37.845 29.3076 37.9338C29.1223 38.0363 28.8918 38.0629 28.6162 38.0142C28.3248 37.9627 28.1085 37.8567 27.967 37.6956C27.8444 37.556 27.7999 37.3899 27.8339 37.1965C27.8615 37.0395 27.9383 36.9175 28.0639 36.8303C28.1535 36.7685 28.2762 36.733 28.4323 36.7244L28.4645 37.0191C28.3687 37.0206 28.2917 37.0436 28.233 37.0883C28.1743 37.1331 28.1386 37.1916 28.1258 37.2638C28.1076 37.3674 28.1377 37.4599 28.2164 37.5412C28.2948 37.6225 28.4378 37.6815 28.6454 37.7181C28.8605 37.7562 29.0191 37.7513 29.1211 37.7036C29.2233 37.6559 29.2832 37.581 29.3012 37.4789C29.3143 37.404 29.2966 37.3343 29.2486 37.2699C29.2001 37.205 29.1151 37.1493 28.9937 37.1032ZM28.388 39.2563C28.5843 39.291 28.7381 39.2796 28.8493 39.2225C28.9608 39.1649 29.0264 39.0811 29.0459 38.9703C29.0654 38.859 29.0327 38.7584 28.9481 38.6678C28.8637 38.5773 28.7206 38.5145 28.5186 38.4788C28.3205 38.4438 28.168 38.4534 28.0604 38.5079C27.9532 38.5622 27.8895 38.6471 27.8693 38.7623C27.849 38.8775 27.8801 38.98 27.963 39.069C28.0461 39.1585 28.1876 39.2209 28.388 39.2563ZM28.3481 39.5502C28.1446 39.5142 27.9824 39.4547 27.8615 39.3709C27.7404 39.2874 27.6561 39.1911 27.6089 39.0825C27.5615 38.9739 27.5501 38.8501 27.5744 38.7115C27.6099 38.5105 27.7149 38.3605 27.8903 38.2609C28.0656 38.1615 28.2946 38.1367 28.5773 38.1867C28.8628 38.2371 29.0744 38.3436 29.2116 38.5059C29.3333 38.6487 29.376 38.8206 29.3405 39.0223C29.3047 39.2257 29.2061 39.3734 29.0451 39.4663C28.8609 39.5718 28.6285 39.5997 28.3481 39.5502ZM29.3554 40.8042L27.673 41.1627L27.4648 40.1812L27.752 40.12L27.9006 40.8208L29.2959 40.5235L29.3554 40.8042ZM27.4485 42.4795L27.4209 42.3492C27.5301 42.3334 27.62 42.3465 27.6896 42.3883C27.7596 42.4305 27.8028 42.4921 27.8201 42.5733C27.8373 42.6548 27.8229 42.7286 27.776 42.7957C27.7295 42.8623 27.6528 42.9114 27.5465 42.9419L27.5189 42.812C27.6279 42.7785 27.6717 42.7108 27.6503 42.6094C27.6289 42.5084 27.5614 42.4649 27.4485 42.4795ZM29.7493 42.7518L28.0531 43.1133L27.9962 42.8452L29.1265 42.6044L27.8767 42.2814L27.8169 41.9996L29.5131 41.6381L29.5699 41.9061L28.4638 42.1418L29.6892 42.4687L29.7493 42.7518ZM30.4119 44.0297L28.8952 44.8726L28.7627 44.6329L29.7734 44.0713L28.484 44.1288L28.3447 43.8768L29.8613 43.0339L29.9938 43.2736L29.0047 43.8232L30.272 43.7766L30.4119 44.0297ZM31.1385 44.9858L29.772 46.056L29.5957 45.8299L30.1773 45.3744C30.132 45.3287 30.0875 45.3071 30.0452 45.3094C30.0023 45.3115 29.9157 45.3384 29.7854 45.3895C29.6549 45.4404 29.5521 45.4676 29.4774 45.4711C29.4028 45.4745 29.3446 45.461 29.3041 45.4306C29.2634 45.4003 29.2045 45.3397 29.1267 45.2491L29.3316 45.0886L29.3564 45.1205C29.4064 45.1846 29.4552 45.2163 29.5026 45.216C29.5496 45.2158 29.6249 45.1942 29.7279 45.1521C29.8312 45.1097 29.9037 45.0863 29.9448 45.0819C29.9859 45.0769 30.0352 45.0829 30.0922 45.0994C30.0741 45.0335 30.0754 44.9668 30.0972 44.8994C30.1184 44.8319 30.1658 44.7337 30.2396 44.6049L30.4939 44.1586L30.7015 44.425L30.454 44.8371C30.3902 44.9421 30.3507 45.0208 30.3338 45.0736C30.3174 45.126 30.3277 45.1775 30.3647 45.2276L30.9623 44.7596L31.1385 44.9858ZM31.0283 45.8319L30.9123 45.5564C31.0823 45.4526 31.2341 45.4058 31.3687 45.4161C31.503 45.4268 31.6216 45.4852 31.7241 45.5916C31.8527 45.7251 31.9056 45.8832 31.8831 46.0655C31.8568 46.276 31.7429 46.4787 31.5415 46.6735C31.3287 46.8796 31.1159 46.9927 30.9029 47.0127C30.7181 47.0301 30.5579 46.9686 30.4219 46.8274C30.3114 46.7127 30.258 46.5787 30.2615 46.4256C30.2643 46.3165 30.3077 46.1962 30.3925 46.0646L30.6493 46.2116C30.5943 46.2902 30.5675 46.3663 30.5691 46.44C30.5706 46.514 30.5969 46.5774 30.6477 46.6301C30.7206 46.7058 30.8129 46.7358 30.9249 46.7197C31.0365 46.704 31.1681 46.6227 31.3197 46.4758C31.4769 46.3237 31.5662 46.1922 31.5876 46.0815C31.6092 45.9705 31.584 45.8779 31.5122 45.8034C31.4594 45.7487 31.3928 45.722 31.3126 45.7232C31.2317 45.7243 31.1368 45.7605 31.0283 45.8319ZM32.5141 47.3503L32.812 46.9944L32.6078 46.8227C32.5185 46.7474 32.4573 46.704 32.4242 46.6919C32.391 46.6799 32.3541 46.6806 32.3137 46.6936C32.2736 46.7069 32.2359 46.7343 32.2003 46.7768C32.1637 46.8206 32.1432 46.864 32.1378 46.9075C32.1327 46.9514 32.1408 46.9915 32.1623 47.0275C32.1842 47.0638 32.2422 47.1216 32.3362 47.2007L32.5141 47.3503ZM32.0707 47.8799L32.3285 47.572L32.1834 47.45C32.0965 47.3769 32.0414 47.3332 32.0181 47.3188C31.9757 47.2932 31.9334 47.2846 31.8905 47.2924C31.848 47.3004 31.8081 47.3266 31.771 47.3709C31.738 47.4103 31.7197 47.4493 31.7165 47.4884C31.7133 47.5274 31.7213 47.5601 31.7405 47.5868C31.76 47.6132 31.8276 47.6754 31.9436 47.773L32.0707 47.8799ZM32.1045 48.2861L31.6684 47.9192C31.5497 47.8193 31.4749 47.738 31.4451 47.6754C31.415 47.613 31.4063 47.5403 31.4191 47.4569C31.432 47.3743 31.4677 47.2976 31.5258 47.2281C31.5796 47.164 31.6422 47.118 31.7141 47.0901C31.7859 47.0622 31.8549 47.0547 31.9208 47.0679C31.8754 46.9906 31.8579 46.9088 31.8681 46.8223C31.8777 46.7358 31.9164 46.6526 31.9834 46.5726C32.0643 46.4758 32.1565 46.4135 32.2588 46.3858C32.3612 46.3579 32.4507 46.3629 32.5274 46.4005C32.5807 46.4269 32.6878 46.5074 32.8483 46.6424L33.2192 46.9543L32.1045 48.2861ZM33.8481 48.4178C33.9566 48.2502 34.0062 48.1038 33.9972 47.9788C33.9879 47.8535 33.9366 47.7603 33.8424 47.699C33.7479 47.6374 33.6427 47.6282 33.5265 47.6709C33.4104 47.7135 33.2968 47.8211 33.1851 47.9935C33.0756 48.1626 33.0248 48.3071 33.0328 48.4277C33.0408 48.5478 33.0939 48.6397 33.1918 48.7034C33.2896 48.7671 33.3958 48.7784 33.51 48.7368C33.6246 48.6952 33.7372 48.5889 33.8481 48.4178ZM34.1023 48.5694C33.9897 48.7432 33.8717 48.8696 33.7475 48.9484C33.6236 49.0275 33.5022 49.0678 33.3839 49.0689C33.2657 49.0702 33.1476 49.0323 33.0299 48.9557C32.8591 48.8445 32.7625 48.689 32.7395 48.4882C32.7168 48.2876 32.7835 48.0665 32.9399 47.8251C33.0978 47.5814 33.2782 47.4277 33.4808 47.3646C33.6595 47.3081 33.834 47.3359 34.0054 47.4475C34.1781 47.5598 34.2753 47.7085 34.2975 47.8935C34.3225 48.1046 34.2573 48.3301 34.1023 48.5694ZM35.3195 48.2371L34.6432 49.5123L35.0161 49.711L34.8783 49.9708L33.8808 49.4391L34.0186 49.1794L34.3904 49.3775L35.0668 48.1024L35.3195 48.2371ZM35.8444 49.1835L35.6231 48.983C35.7334 48.8169 35.8513 48.7101 35.9777 48.6625C36.1038 48.6151 36.236 48.6179 36.3736 48.6709C36.5466 48.7375 36.6612 48.8583 36.7176 49.0331C36.7826 49.2349 36.7646 49.4669 36.6644 49.7288C36.5583 50.0057 36.4132 50.1984 36.2285 50.3068C36.0684 50.4008 35.8973 50.413 35.7145 50.3426C35.566 50.2855 35.4611 50.1866 35.3997 50.0464C35.3563 49.9464 35.345 49.8189 35.3663 49.6637L35.661 49.6882C35.6442 49.7828 35.652 49.863 35.6846 49.9292C35.7173 49.9956 35.7678 50.0419 35.836 50.0681C35.934 50.1059 36.0303 50.0939 36.1249 50.032C36.2195 49.9704 36.3045 49.841 36.38 49.6436C36.4583 49.4392 36.4838 49.2822 36.4565 49.1728C36.4293 49.063 36.3674 48.9898 36.2709 48.9526C36.2001 48.9254 36.1285 48.9294 36.0562 48.9645C35.9835 48.9998 35.9127 49.0728 35.8444 49.1835ZM37.8955 50.1714C37.9538 49.9802 37.9611 49.8259 37.9181 49.7082C37.8748 49.5903 37.7998 49.5148 37.6925 49.4819C37.5847 49.4489 37.481 49.4691 37.381 49.5423C37.2811 49.6153 37.2015 49.75 37.1415 49.9467C37.0828 50.1395 37.0737 50.2924 37.1146 50.4061C37.1553 50.5194 37.2316 50.5931 37.3431 50.6273C37.4547 50.6615 37.56 50.643 37.6582 50.5715C37.7569 50.4997 37.836 50.3665 37.8955 50.1714ZM38.1815 50.2468C38.1211 50.445 38.0425 50.5992 37.9447 50.7092C37.8474 50.8195 37.7418 50.8917 37.6284 50.9255C37.5151 50.9594 37.3912 50.9556 37.2569 50.9144C37.0622 50.8548 36.9266 50.732 36.8493 50.5453C36.7723 50.3588 36.7756 50.1278 36.8596 49.8526C36.9443 49.5747 37.0755 49.3771 37.2529 49.2604C37.4091 49.1567 37.5845 49.1352 37.7799 49.1951C37.9768 49.2554 38.1111 49.3715 38.1834 49.5431C38.2655 49.7392 38.2648 49.9739 38.1815 50.2468ZM39.0411 51.0885L39.1601 50.6101L39.0062 50.5716C38.9027 50.5457 38.8309 50.5353 38.79 50.5405C38.7495 50.5458 38.7125 50.5645 38.6795 50.5968C38.6461 50.6289 38.6228 50.6723 38.609 50.7276C38.5952 50.7834 38.5955 50.834 38.6103 50.8782C38.6255 50.9228 38.6493 50.9559 38.682 50.9782C38.7148 51.0002 38.7892 51.0255 38.9056 51.0546L39.0411 51.0885ZM39.6674 49.7566L39.2479 51.4434L38.8001 51.3314C38.6332 51.2897 38.5263 51.2543 38.479 51.2253C38.4036 51.179 38.3501 51.1063 38.3179 51.0082C38.2858 50.9097 38.2864 50.7934 38.3198 50.6591C38.3502 50.537 38.3988 50.4407 38.465 50.3697C38.5315 50.2986 38.6034 50.2553 38.6807 50.2391C38.7575 50.2228 38.8804 50.2357 39.0489 50.2778L39.2315 50.3234L39.3897 49.6872L39.6674 49.7566Z" fill="#FFF100"/>
<path fill-rule="evenodd" clip-rule="evenodd" d="M42.2119 51.7128V50.3993H42.5404C42.586 50.3977 42.6317 50.4016 42.6764 50.4111C42.7181 50.4211 42.7562 50.4424 42.7867 50.4726C42.8203 50.509 42.8452 50.5528 42.8594 50.6004C42.8785 50.6585 42.888 50.7192 42.8876 50.7803C42.8908 50.8801 42.8656 50.9786 42.8148 51.0643C42.7545 51.1481 42.654 51.1924 42.5521 51.1803H42.3175V51.7152L42.2119 51.7128ZM42.3316 51.0241H42.5662C42.6267 51.0302 42.6866 51.0074 42.728 50.9626C42.7627 50.9103 42.7792 50.8478 42.775 50.785C42.7765 50.7362 42.7668 50.6876 42.7468 50.643C42.7322 50.6085 42.7055 50.5807 42.6717 50.5649C42.6352 50.5593 42.598 50.5593 42.5615 50.5649H42.3269L42.3316 51.0241Z" fill="#FFE600"/>
<path fill-rule="evenodd" clip-rule="evenodd" d="M43.1732 50.3992H43.2812V51.4405L43.7504 50.3992H43.8677V51.7127H43.7598V50.6737L43.2905 51.7127H43.1709L43.1732 50.3992Z" fill="#FFE600"/>
<path fill-rule="evenodd" clip-rule="evenodd" d="M44.2002 51.7127V50.3992H44.3198V50.9388H44.7891V50.3992H44.9087V51.7127H44.7891V51.0926H44.3198V51.7127H44.2002Z" fill="#FFE600"/>
<path fill-rule="evenodd" clip-rule="evenodd" d="M45.1318 51.7127L45.4767 51.0335L45.1717 50.3992H45.3148L45.479 50.7376C45.5119 50.8062 45.5354 50.8607 45.5494 50.8962C45.5705 50.8489 45.594 50.7991 45.6222 50.7471L45.8005 50.3992H45.9295L45.6198 51.024L45.9553 51.7127H45.8098L45.5752 51.2394L45.5377 51.1589L45.4978 51.2488L45.2632 51.7056L45.1318 51.7127Z" fill="#FFE600"/>
<path fill-rule="evenodd" clip-rule="evenodd" d="M42.0711 50.1414C41.8353 50.3983 41.7082 50.738 41.7168 51.0881C41.7113 51.4376 41.838 51.7761 42.0711 52.0347H41.8764C41.6341 51.7809 41.5017 51.4404 41.508 51.0881C41.5042 50.7362 41.6363 50.3966 41.8764 50.1414H42.0711Z" fill="#FFE600"/>
<path fill-rule="evenodd" clip-rule="evenodd" d="M46.2934 50.1414C46.5334 50.3966 46.6655 50.7362 46.6617 51.0881C46.6681 51.4404 46.5356 51.7809 46.2934 52.0347H46.0986C46.3317 51.7761 46.4584 51.4376 46.4529 51.0881C46.4615 50.738 46.3344 50.3983 46.0986 50.1414H46.2934Z" fill="#FFE600"/>
</g>
<defs>
<filter id="filter0_d_125_3431" x="0" y="0" width="88" height="88" filterUnits="userSpaceOnUse" color-interpolation-filters="sRGB">
<feFlood flood-opacity="0" result="BackgroundImageFix"/>
<feColorMatrix in="SourceAlpha" type="matrix" values="0 0 0 0 0 0 0 0 0 0 0 0 0 0 0 0 0 0 127 0" result="hardAlpha"/>
<feOffset dy="4"/>
<feGaussianBlur stdDeviation="9.5"/>
<feComposite in2="hardAlpha" operator="out"/>
<feColorMatrix type="matrix" values="0 0 0 0 0.619608 0 0 0 0 0.752941 0 0 0 0 0.615686 0 0 0 0.25 0"/>
<feBlend mode="normal" in2="BackgroundImageFix" result="effect1_dropShadow_125_3431"/>
<feBlend mode="normal" in="SourceGraphic" in2="effect1_dropShadow_125_3431" result="shape"/>
</filter>
</defs>
</svg>
